<svg width="48" height="48" viewBox="0 0 48 48" fill="none" xmlns="http://www.w3.org/2000/svg">
<path d="M16.1456 33.8401C14.2177 33.8401 12.6547 35.3983 12.6547 37.3201C12.6547 39.2419 14.2177 40.8001 16.1456 40.8001C18.0735 40.8001 19.6365 39.2419 19.6365 37.3201C19.6365 35.3983 18.0735 33.8401 16.1456 33.8401ZM16.1456 39.0601C15.1812 39.0601 14.4001 38.2814 14.4001 37.3201C14.4001 36.3587 15.1812 35.5801 16.1456 35.5801C17.11 35.5801 17.8911 36.3587 17.8911 37.3201C17.8911 38.2814 17.11 39.0601 16.1456 39.0601Z" fill="#16A2FF"/>
<path d="M37.0911 33.8401C35.1633 33.8401 33.6002 35.3983 33.6002 37.3201C33.6002 39.2419 35.1633 40.8001 37.0911 40.8001C39.019 40.8001 40.5821 39.2419 40.5821 37.3201C40.5821 35.3983 39.019 33.8401 37.0911 33.8401ZM37.0911 39.0601C36.1268 39.0601 35.3457 38.2814 35.3457 37.3201C35.3457 36.3587 36.1268 35.5801 37.0911 35.5801C38.0555 35.5801 38.8366 36.3587 38.8366 37.3201C38.8366 38.2814 38.0555 39.0601 37.0911 39.0601Z" fill="#16A2FF"/>
<path d="M43.0004 12.4049C42.8346 12.2057 42.5876 12.09 42.3275 12.09H11.8011L10.8219 6.71427C10.7468 6.30102 10.3855 6 9.964 6H5.67278C5.19103 6 4.80005 6.38976 4.80005 6.87C4.80005 7.35024 5.19103 7.74 5.67278 7.74H9.23527L13.5422 31.3857C13.6173 31.799 13.9786 32.1 14.4001 32.1H38.8366C39.2555 32.1 39.6159 31.8033 39.6936 31.3927L43.1845 13.1227C43.2334 12.8686 43.1653 12.605 43.0004 12.4049ZM40.4416 18.18H34.8508L35.2663 13.83H41.2724L40.4416 18.18ZM13.2271 19.92H18.5517L18.9671 24.27H14.0196L13.2271 19.92ZM27.4911 19.92H32.9308L32.5154 24.27H27.4911V19.92ZM20.1392 18.18L19.7238 13.83H25.7456V18.18H20.1392ZM25.7456 19.92V24.27H20.7213L20.3059 19.92H25.7456ZM20.8871 26.01H25.7456V30.36H21.3025L20.8871 26.01ZM27.4911 26.01H32.3496L31.9342 30.36H27.4911V26.01ZM27.4911 18.18V13.83H33.5129L33.0975 18.18H27.4911ZM34.685 19.92H40.109L39.2782 24.27H34.2696L34.685 19.92ZM17.9704 13.83L18.3859 18.18H12.9103L12.1179 13.83H17.9704ZM14.3364 26.01H19.1338L19.5492 30.36H15.1288L14.3364 26.01ZM38.114 30.36H33.6875L34.1029 26.01H38.9457L38.114 30.36Z" fill="#6478A6"/>
<rect x="14.4" y="30" width="24" height="1.2" fill="#6478A6"/>
<path d="M38.4 20.4C42.3764 20.4 45.5999 17.1765 45.5999 13.2C45.5999 9.22355 42.3764 6 38.4 6C34.4235 6 31.2 9.22355 31.2 13.2C31.2 17.1765 34.4235 20.4 38.4 20.4Z" fill="#FF5630"/>
<path d="M39.2999 12.975V17.025C39.2999 17.3976 38.8967 17.7 38.3999 17.7C37.9031 17.7 37.4999 17.3976 37.4999 17.025V12.975C37.4999 12.6024 37.9031 12.3 38.3999 12.3C38.8967 12.3 39.2999 12.6024 39.2999 12.975Z" fill="white"/>
<path d="M39.2999 10.0499V10.7249C39.2999 11.0975 38.8967 11.3999 38.3999 11.3999C37.9031 11.3999 37.4999 11.0975 37.4999 10.7249V10.0499C37.4999 9.6773 37.9031 9.3749 38.3999 9.3749C38.8967 9.3749 39.2999 9.6773 39.2999 10.0499Z" fill="white"/>
</svg>
